# xmcd CD database file
#
# Track frame offsets:
#	150
#	22200
#	41700
#	61125
#	82425
#	100012
#	117300
#	135000
#	152812
#	171112
#	190275
#	210187
#
# Disc length: 3021 seconds
#
# Revision: 0
# Processed by: cddbd v1.4PL0 Copyright (c) Steve Scherf et al.
# Submitted via: CdAid 2001.05.15.01
#
DISCID=9d0bcb0c
DTITLE=Sharon DiFronzo - Sharon DiFronzo
DYEAR=1900
DGENRE=
TTITLE0=It's Not About Me
TTITLE1=Better Than Lonely
TTITLE2=Through Space and Time
TTITLE3=Don't Give Your Heart Away
TTITLE4=I'll Think Of You That Way
TTITLE5=Comin' and Goin'
TTITLE6=Mistaken Identity
TTITLE7=Now She Can Have You
TTITLE8=Corners
TTITLE9=This Time Last Year
TTITLE10=What's Goin' On?
TTITLE11=High Expectations
EXTD=
EXTT0=
EXTT1=
EXTT2=
EXTT3=
EXTT4=
EXTT5=
EXTT6=
EXTT7=
EXTT8=
EXTT9=
EXTT10=
EXTT11=
PLAYORDER=
